<?xml version="1.0" standalone="no"?>
<!DOCTYPE svg PUBLIC "-//W3C//DTD SVG 20010904//EN"
 "http://www.w3.org/TR/2001/REC-SVG-20010904/DTD/svg10.dtd">
<svg version="1.0" xmlns="http://www.w3.org/2000/svg"
 width="1024.000000pt" height="1024.000000pt" viewBox="0 0 1024.000000 1024.000000"
 preserveAspectRatio="xMidYMid meet">

<g transform="translate(0.000000,1024.000000) scale(0.100000,-0.100000)"
fill="#fff" stroke="none">
<path d="M5020 9251 c-47 -21 -256 -112 -465 -203 -461 -201 -1355 -591 -1520
-663 -66 -29 -210 -92 -320 -140 -110 -47 -206 -91 -213 -97 -8 -8 -12 -30
-10 -67 l3 -55 235 -99 c129 -54 357 -150 505 -214 l270 -115 30 18 c162 95
277 148 429 201 567 194 1222 236 1856 119 319 -60 639 -174 841 -301 22 -15
48 -27 57 -27 10 -1 123 44 253 100 130 55 355 149 500 207 145 59 270 114
277 123 14 19 16 66 2 91 -5 10 -33 28 -62 41 -241 103 -812 353 -1188 520
-250 111 -536 237 -635 280 -99 43 -299 131 -445 195 -146 64 -276 118 -290
121 -15 2 -59 -12 -110 -35z"/>
<path d="M4885 7834 c-22 -2 -89 -9 -150 -14 -250 -25 -607 -103 -791 -173
-128 -49 -270 -122 -288 -149 -21 -29 -23 -295 -3 -320 6 -9 53 -32 102 -51
250 -96 581 -258 773 -378 230 -143 376 -274 574 -512 l24 -29 61 74 c72 86
245 258 324 322 176 141 506 322 859 471 105 44 195 88 208 102 21 23 22 33
22 164 0 162 -1 164 -108 218 -236 119 -588 214 -952 256 -127 15 -567 28
-655 19z"/>
<path d="M1843 7723 c-18 -7 -17 -151 1 -245 32 -166 118 -359 233 -521 72
-102 283 -313 386 -387 42 -30 77 -60 77 -66 0 -6 -28 -46 -63 -90 -180 -224
-288 -430 -367 -694 -50 -168 -61 -254 -67 -515 -5 -226 -3 -262 17 -379 41
-242 113 -448 231 -656 193 -340 486 -613 1022 -951 241 -152 464 -303 633
-431 559 -418 918 -849 1120 -1347 24 -58 49 -106 55 -106 7 0 31 45 53 100
210 509 574 940 1161 1379 177 132 183 137 565 388 523 346 720 512 917 773
400 532 501 1256 262 1892 -80 213 -159 351 -307 538 -40 50 -72 95 -71 100 0
6 32 33 72 60 99 69 319 291 396 400 67 96 156 269 191 374 34 102 50 196 50
291 0 128 -8 128 -198 2 -333 -224 -620 -356 -1057 -487 -792 -237 -1126 -407
-1565 -800 -227 -204 -357 -385 -436 -609 l-28 -79 -23 69 c-34 102 -98 224
-167 322 -111 157 -361 392 -601 564 -299 214 -636 359 -1247 538 -473 138
-723 253 -1115 511 -58 38 -108 69 -111 68 -4 0 -13 -3 -19 -6z m1442 -1513
c425 -118 673 -220 915 -378 292 -189 500 -437 585 -699 l26 -77 -41 -84
c-133 -277 -359 -525 -607 -664 -375 -211 -750 -205 -1095 17 -88 57 -214 177
-274 261 -63 87 -140 255 -171 371 -25 90 -27 114 -27 298 -1 179 2 209 23
289 62 235 169 423 333 582 99 96 150 136 168 130 8 -2 83 -23 165 -46z m3929
-20 c359 -296 513 -773 397 -1232 -64 -253 -192 -448 -392 -598 -199 -149
-475 -228 -698 -201 -290 36 -534 163 -762 398 -120 123 -185 216 -261 368
-69 140 -70 148 -14 276 168 390 536 687 1116 900 52 19 496 153 522 158 4 0
45 -31 92 -69z m-2025 -1716 c86 -65 192 -182 272 -303 38 -57 69 -107 69
-112 0 -4 -45 -83 -100 -175 -118 -197 -227 -408 -275 -532 -26 -68 -35 -83
-41 -67 -48 134 -173 380 -305 599 -100 169 -101 170 -86 200 29 61 143 211
217 286 67 69 164 149 182 150 3 0 33 -21 67 -46z"/>
<path d="M3565 5790 c-105 -17 -179 -56 -266 -137 -184 -172 -229 -448 -113
-691 28 -58 56 -96 113 -153 114 -114 208 -156 371 -165 182 -11 354 51 473
170 109 110 157 230 157 401 0 176 -48 294 -162 400 -78 72 -198 136 -298 159
-84 20 -212 27 -275 16z m314 -308 c64 -47 83 -121 47 -189 -31 -61 -120 -89
-189 -59 -96 40 -118 170 -41 237 47 41 135 46 183 11z"/>
<path d="M6469 5789 c-193 -28 -400 -162 -469 -302 -81 -165 -79 -384 5 -553
66 -135 217 -245 385 -280 98 -21 241 -14 328 15 298 101 467 425 379 729 -31
105 -77 179 -161 259 -127 121 -271 161 -467 132z m22 -289 c19 -5 48 -24 65
-41 26 -27 29 -37 29 -94 0 -57 -3 -67 -29 -94 -79 -82 -212 -60 -251 43 -21
54 -9 109 33 149 44 42 92 54 153 37z"/>
</g>
</svg>
