<?xml version="1.0" standalone="no"?>
<!DOCTYPE svg PUBLIC "-//W3C//DTD SVG 20010904//EN"
 "http://www.w3.org/TR/2001/REC-SVG-20010904/DTD/svg10.dtd">
<svg version="1.0" xmlns="http://www.w3.org/2000/svg"
 width="5120pt" height="2880pt" viewBox="0 0 2560 1440"
 preserveAspectRatio="xMidYMid meet">

<g transform="translate(0.000000,1440.000000) scale(0.100000,-0.100000)"
fill="#3954e3" stroke="none">
<path d="M5835 9090 c-11 -5 -83 -37 -160 -70 -77 -34 -164 -72 -193 -86 -29
-13 -55 -24 -57 -24 -2 0 -87 -36 -187 -81 -101 -44 -230 -101 -288 -127 -278
-121 -275 -119 -275 -147 0 -23 9 -30 80 -62 44 -19 91 -39 105 -44 35 -11
249 -104 256 -111 3 -3 51 17 107 45 360 178 917 179 1284 1 51 -24 95 -44 98
-44 15 0 452 185 465 197 10 9 12 18 5 29 -9 13 -116 66 -235 114 -25 10 -70
29 -100 43 -49 22 -264 117 -480 212 -41 18 -109 48 -150 65 -41 18 -110 48
-153 66 -84 36 -91 38 -122 24z"/>
<path d="M8905 8631 c-272 -35 -510 -194 -619 -415 -72 -145 -69 -115 -73
-963 l-4 -763 311 0 310 0 0 708 c0 435 4 721 10 743 5 19 23 48 40 64 24 23
41 30 88 33 100 7 152 -38 152 -130 0 -81 -46 -126 -147 -143 l-43 -7 0 -270
0 -270 153 5 c170 5 234 19 343 72 165 80 278 236 321 443 19 92 13 264 -12
357 -66 243 -277 453 -517 514 -87 22 -230 32 -313 22z"/>
<path d="M16407 8583 c-4 -3 -7 -476 -7 -1050 l0 -1043 285 0 285 0 0 1050 0
1050 -278 0 c-153 0 -282 -3 -285 -7z"/>
<path d="M5645 8425 c-147 -19 -296 -61 -397 -111 -45 -23 -46 -24 -50 -76 -7
-97 -5 -100 80 -133 116 -44 298 -140 386 -203 43 -32 108 -89 143 -128 l63
-71 98 97 c115 114 194 165 410 265 l157 73 3 76 3 75 -40 21 c-211 107 -556
154 -856 115z"/>
<path d="M4370 8351 c0 -154 103 -340 255 -461 36 -28 65 -56 65 -60 0 -5 -23
-39 -50 -75 -147 -194 -210 -462 -165 -696 56 -293 207 -493 535 -704 184
-119 219 -142 290 -194 268 -195 450 -406 537 -623 25 -61 43 -85 43 -58 0 30
103 217 166 299 134 179 313 333 609 526 408 266 546 437 611 757 12 60 15
111 11 188 -10 202 -65 361 -174 503 -24 32 -46 64 -49 72 -3 7 16 28 45 49
64 47 146 138 189 209 58 97 103 262 81 298 -5 9 -32 -3 -96 -43 -168 -106
-237 -137 -510 -227 -288 -95 -388 -140 -523 -232 -171 -117 -293 -251 -345
-376 l-23 -58 -11 28 c-6 16 -11 31 -11 35 0 3 -18 35 -39 71 -46 78 -164 197
-276 282 -144 108 -273 163 -660 284 -163 51 -259 96 -403 186 -51 33 -95 59
-98 59 -2 0 -4 -17 -4 -39z m728 -672 c306 -91 502 -228 597 -416 40 -77 37
-107 -13 -187 -58 -92 -107 -150 -169 -196 -129 -98 -274 -142 -395 -120 -136
24 -272 118 -338 233 -48 83 -64 149 -64 267 -1 131 20 206 84 304 46 70 129
156 150 156 6 0 73 -18 148 -41z m1763 -22 c131 -127 188 -306 156 -490 -20
-112 -54 -182 -127 -261 -104 -110 -260 -167 -400 -146 -104 16 -234 85 -317
169 -66 67 -122 147 -145 208 -15 41 -4 88 40 162 66 112 176 207 332 286 70
36 345 133 381 134 9 1 45 -27 80 -62z m-945 -764 c35 -26 110 -117 133 -161
11 -20 9 -29 -13 -62 -42 -64 -122 -212 -141 -262 -16 -44 -35 -63 -35 -36 0
15 -93 196 -142 276 l-39 64 25 43 c32 54 141 165 162 165 8 0 31 -12 50 -27z"/>
<path d="M5127 7494 c-91 -28 -158 -121 -165 -230 -11 -163 132 -301 291 -280
148 20 237 114 237 251 0 113 -31 171 -117 222 -44 26 -138 53 -178 52 -11 0
-42 -7 -68 -15z m196 -146 c33 -39 -4 -108 -59 -108 -68 0 -88 110 -24 133 25
9 64 -3 83 -25z"/>
<path d="M6467 7499 c-87 -20 -169 -80 -198 -144 -28 -60 -25 -166 5 -231 70
-151 283 -191 415 -77 154 131 107 392 -81 448 -57 17 -84 17 -141 4z m61
-141 c8 -7 12 -27 10 -52 -2 -32 -9 -44 -30 -55 -55 -31 -110 18 -94 83 11 43
75 56 114 24z"/>
<path d="M10470 8035 c-172 -39 -330 -164 -409 -325 -84 -172 -85 -180 -85
-730 l-1 -485 285 0 285 0 5 415 c5 413 5 415 29 464 19 39 33 52 69 68 46 21
62 20 150 -7 l22 -7 0 300 c0 222 -3 303 -12 308 -24 15 -271 14 -338 -1z"/>
<path d="M11524 8035 c-287 -62 -525 -292 -600 -580 -25 -97 -25 -292 -1 -399
31 -130 97 -246 202 -352 101 -102 189 -159 306 -198 158 -53 338 -59 489 -16
75 22 226 94 268 130 28 23 47 -6 -152 233 -76 92 -145 167 -151 167 -7 0 -18
-7 -26 -16 -40 -49 -154 -69 -222 -40 -140 60 -198 322 -111 503 81 169 295
190 370 37 14 -29 23 -58 19 -63 -4 -7 -60 -11 -149 -11 l-143 0 -13 -60 c-14
-67 -9 -173 10 -195 11 -13 77 -15 436 -15 487 0 444 -10 444 107 -1 138 -44
297 -111 409 -48 81 -159 196 -239 249 -136 90 -263 125 -448 124 -64 0 -145
-7 -178 -14z"/>
<path d="M13370 8044 c-88 -17 -186 -51 -264 -92 -166 -85 -302 -246 -360
-425 -50 -155 -51 -166 -51 -907 l0 -695 285 0 285 0 5 690 c5 740 4 721 58
793 40 54 78 72 154 72 82 0 112 -11 161 -58 65 -62 86 -129 67 -204 -37 -140
-180 -212 -298 -150 -23 12 -45 22 -47 22 -3 0 -5 -139 -5 -309 l0 -310 46 -7
c26 -4 92 -4 148 -1 211 12 369 87 523 250 94 100 153 200 189 322 35 120 38
307 5 429 -71 268 -281 479 -553 556 -72 21 -288 35 -348 24z"/>
<path d="M15100 8035 c-279 -57 -507 -259 -594 -528 -70 -214 -43 -474 70
-667 45 -79 188 -222 267 -269 145 -85 385 -133 526 -105 l31 7 0 292 0 292
-52 -18 c-62 -21 -97 -23 -149 -8 -167 51 -203 277 -60 386 114 88 259 54 323
-74 23 -47 23 -54 28 -448 l5 -400 283 -3 282 -2 0 424 c0 450 -6 530 -46 648
-105 310 -382 490 -749 487 -55 0 -129 -7 -165 -14z"/>
<path d="M21094 8036 c-78 -18 -168 -54 -242 -97 -72 -43 -226 -198 -271 -272
-145 -245 -145 -577 0 -824 50 -86 199 -229 289 -280 205 -115 470 -133 695
-48 72 27 210 108 210 124 0 5 -71 96 -158 201 l-159 192 -21 -20 c-47 -43
-91 -62 -144 -62 -65 0 -92 10 -141 55 -132 119 -127 432 9 548 37 33 96 57
135 57 40 0 96 -22 128 -51 34 -30 71 -103 61 -120 -4 -5 -71 -9 -150 -9
l-144 0 -11 -57 c-14 -66 -8 -176 10 -198 11 -13 70 -15 439 -13 l426 3 3 117
c5 220 -57 374 -213 534 -102 104 -194 163 -312 201 -66 21 -102 26 -228 29
-104 2 -169 -1 -211 -10z"/>
<path d="M17294 8006 c-3 -8 -4 -254 -2 -548 4 -477 6 -539 22 -588 50 -155
148 -274 272 -332 54 -25 82 -32 158 -36 108 -5 179 8 265 48 l63 30 -7 -27
c-25 -106 -112 -216 -197 -253 -77 -33 -176 -37 -271 -11 -42 11 -79 21 -82
21 -3 0 -5 -110 -5 -245 l0 -245 28 -11 c56 -22 210 -49 283 -49 384 -1 705
247 811 625 22 79 23 87 26 858 l3 777 -286 0 -285 0 0 -417 c0 -422 -4 -471
-38 -513 -35 -43 -137 -35 -165 14 -9 15 -13 144 -17 466 l-5 445 -283 3
c-238 2 -283 0 -288 -12z"/>
<path d="M18852 7723 l3 -298 238 -3 c130 -1 237 -5 237 -7 0 -3 -101 -208
-225 -455 -124 -247 -225 -454 -225 -460 0 -7 244 -9 733 -8 l732 3 3 298 2
297 -270 0 c-148 0 -270 3 -270 6 0 4 104 211 230 460 127 249 230 455 230
458 0 3 -320 6 -710 6 l-710 0 2 -297z"/>
</g>
</svg>
